<svg xmlns="http://www.w3.org/2000/svg" xmlns:xlink="http://www.w3.org/1999/xlink" width="100" height="95" viewBox="0 0 100 95">
  <defs>
    <clipPath id="clip-logo">
      <rect width="100" height="95"/>
    </clipPath>
  </defs>
  <g id="logo" clip-path="url(#clip-logo)">
    <g id="Group_1" data-name="Group 1" transform="translate(1 1)">
      <path id="Path_1" data-name="Path 1" d="M921.959,527.963s12.093-3.107,22.017-1.648,17.676,8.449,17.676,8.449,8.535-7.687,18.591-9.6,21.635,1.95,21.635,1.95v57.642s-11.578-3.345-21.635-2.046a57.436,57.436,0,0,0-18.591,6.131,38.722,38.722,0,0,0-17.676-6.131c-9.923-.678-22.017,3.42-22.017,3.42Z" transform="translate(-913 -498)" fill="none" stroke="#fff" stroke-width="4"/>
      <path id="Path_2" data-name="Path 2" d="M921.959,536.333a21.8,21.8,0,0,0-6.45,7.863c-2.156,4.806-3.331,9.466-1.206,14.348s4.592,6.254,9.278,6.914,8.464-.906,9.756-5.119-.767-7.479-3.305-9.78-8.073-2.09-8.073-2.09Z" transform="translate(-913 -498)" fill="#fff" stroke="#fff" stroke-width="1"/>
      <path id="Path_3" data-name="Path 3" d="M924.958,536.333a21.8,21.8,0,0,1,6.45,7.863c2.156,4.806,3.331,9.466,1.206,14.348s-4.592,6.254-9.278,6.914-8.464-.906-9.756-5.119.767-7.479,3.305-9.78,8.073-2.09,8.073-2.09Z" transform="translate(-836 -498)" fill="#fff" stroke="#fff" stroke-width="1"/>
      <path id="Path_4" data-name="Path 4" d="M941.087,518.2s.6-10.316,6.81-15.291,9.856-5.515,14.007-5.46c.079,0,.158,0,.546.015a22.55,22.55,0,0,1,14.62,6.478c5.356,5,6.258,13.519,6.258,13.519a52.043,52.043,0,0,0-11.591,2,41.352,41.352,0,0,0-9.834,4.856,25.293,25.293,0,0,0-8.469-4.292A62.107,62.107,0,0,0,941.087,518.2Z" transform="translate(-914 -497)" fill="#fff" stroke="#fff" stroke-width="1"/>
      <line id="Line_1" data-name="Line 1" y2="54" transform="translate(48.5 36.5)" fill="none" stroke="#fff" stroke-width="3"/>
      <path id="Path_5" data-name="Path 5" d="M17.55-17.75a1.5,1.5,0,0,1,1.125.438A1.6,1.6,0,0,1,19.1-16.15v14.8a1.486,1.486,0,0,1-.4,1.1,1.42,1.42,0,0,1-1.05.4,1.337,1.337,0,0,1-1.025-.4,1.545,1.545,0,0,1-.375-1.1v-10.3L12-3.6a2.482,2.482,0,0,1-.65.812,1.336,1.336,0,0,1-.825.263,1.382,1.382,0,0,1-.825-.25A2.3,2.3,0,0,1,9.05-3.6L4.775-11.525V-1.35A1.524,1.524,0,0,1,4.388-.262,1.356,1.356,0,0,1,3.35.15a1.337,1.337,0,0,1-1.025-.4,1.545,1.545,0,0,1-.375-1.1v-14.8a1.625,1.625,0,0,1,.412-1.162,1.456,1.456,0,0,1,1.112-.437A1.683,1.683,0,0,1,5-16.675L10.55-6.1l5.525-10.575A1.654,1.654,0,0,1,17.55-17.75Z" transform="translate(23 66)" fill="#fff"/>
      <path id="Path_6" data-name="Path 6" d="M16-2.025a1.58,1.58,0,0,1,.3.875,1.172,1.172,0,0,1-.463.95A1.674,1.674,0,0,1,14.75.175a1.638,1.638,0,0,1-.762-.188,1.64,1.64,0,0,1-.612-.562L10.05-5.625A3.239,3.239,0,0,0,8.988-6.75a2.9,2.9,0,0,0-1.463-.325H5.075v5.6A1.632,1.632,0,0,1,4.65-.287,1.529,1.529,0,0,1,3.5.15,1.571,1.571,0,0,1,2.338-.287,1.6,1.6,0,0,1,1.9-1.475V-16.1a1.494,1.494,0,0,1,.413-1.125,1.565,1.565,0,0,1,1.137-.4H9.7a6.837,6.837,0,0,1,4.562,1.337,4.8,4.8,0,0,1,1.563,3.863,4.883,4.883,0,0,1-1.163,3.363,5.5,5.5,0,0,1-3.287,1.688,3.152,3.152,0,0,1,1.275.625A5.5,5.5,0,0,1,13.725-5.5ZM9.25-9.55a4.234,4.234,0,0,0,2.675-.687,2.556,2.556,0,0,0,.85-2.112,2.513,2.513,0,0,0-.85-2.113,4.353,4.353,0,0,0-2.675-.663H5.05V-9.55Z" transform="translate(55 66)" fill="#fff"/>
    </g>
  </g>
</svg>
